<svg xmlns="http://www.w3.org/2000/svg" width="64" height="64" viewBox="0 0 64 64">
  <rect width="64" height="64" fill="#080808"/>
  <!-- night sky dither -->
  <rect x="4" y="6" width="6" height="6" fill="#0000aa"/>
  <rect x="10" y="6" width="6" height="6" fill="#080808"/>
  <rect x="16" y="6" width="6" height="6" fill="#5555ff"/>
  <rect x="22" y="6" width="6" height="6" fill="#080808"/>
  <rect x="28" y="6" width="6" height="6" fill="#55ffff"/>
  <rect x="34" y="6" width="6" height="6" fill="#080808"/>
  <!-- mountain silhouette -->
  <rect x="8" y="18" width="8" height="8" fill="#0000aa"/>
  <rect x="16" y="18" width="8" height="8" fill="#080808"/>
  <rect x="24" y="18" width="8" height="8" fill="#aa00aa"/>
  <rect x="32" y="18" width="8" height="8" fill="#080808"/>
  <rect x="8" y="26" width="8" height="8" fill="#080808"/>
  <rect x="16" y="26" width="8" height="8" fill="#aa00aa"/>
  <rect x="24" y="26" width="8" height="8" fill="#ff55ff"/>
  <rect x="32" y="26" width="8" height="8" fill="#aa00aa"/>
  <rect x="8" y="34" width="8" height="8" fill="#5555ff"/>
  <rect x="16" y="34" width="8" height="8" fill="#080808"/>
  <rect x="24" y="34" width="8" height="8" fill="#0000aa"/>
  <rect x="32" y="34" width="8" height="8" fill="#080808"/>
  <!-- town glow -->
  <rect x="12" y="44" width="6" height="4" fill="#ffff55"/>
  <rect x="20" y="44" width="6" height="4" fill="#55ffff"/>
  <rect x="28" y="44" width="6" height="4" fill="#ffff55"/>
  <rect x="36" y="44" width="6" height="4" fill="#080808"/>
  <text x="6" y="58" fill="#ff55ff" font-family="Courier New, monospace" font-size="7">EGA</text>
</svg>
