<?xml version="1.0" encoding="UTF-8"?>
<svg id="Lager_1" xmlns="http://www.w3.org/2000/svg" version="1.1" viewBox="0 0 201.81 59.92">
  <!-- Generator: Adobe Illustrator 29.8.3, SVG Export Plug-In . SVG Version: 2.1.1 Build 3)  -->
  <defs>
    <style>
      .st0 {
        fill: #c4ff00;
      }
    </style>
  </defs>
  <path class="st0" d="M51.12,8.8c-2.72-2.72-5.89-4.87-9.52-6.44-3.63-1.57-7.52-2.36-11.68-2.36s-7.97.79-11.6,2.36c-3.63,1.57-6.8,3.72-9.52,6.44-2.72,2.72-4.87,5.89-6.44,9.52-1.57,3.63-2.36,7.52-2.36,11.68s.79,7.97,2.36,11.6c1.57,3.63,3.72,6.8,6.44,9.52,2.72,2.72,5.89,4.87,9.52,6.44,3.63,1.57,7.49,2.36,11.6,2.36s8.05-.79,11.68-2.36c3.63-1.57,6.8-3.72,9.52-6.44s4.87-5.89,6.44-9.52c1.57-3.63,2.36-7.49,2.36-11.6s-.79-8.05-2.36-11.68c-1.57-3.63-3.72-6.8-6.44-9.52ZM43.8,35.84c-.77,1.81-1.84,3.4-3.2,4.76s-2.96,2.43-4.8,3.2c-1.84.77-3.8,1.16-5.88,1.16s-4.03-.39-5.84-1.16c-1.81-.77-3.4-1.84-4.76-3.2-1.36-1.36-2.43-2.95-3.2-4.76-.77-1.81-1.16-3.76-1.16-5.84s.39-4.04,1.16-5.88c.77-1.84,1.84-3.44,3.2-4.8,1.36-1.36,2.95-2.43,4.76-3.2,1.81-.77,3.76-1.16,5.84-1.16s4.04.39,5.88,1.16c1.84.77,3.44,1.84,4.8,3.2s2.43,2.96,3.2,4.8c.77,1.84,1.16,3.8,1.16,5.88s-.39,4.03-1.16,5.84Z"/>
  <path class="st0" d="M108.35,18.72c0-2.56-.49-4.99-1.48-7.28-.99-2.29-2.32-4.28-4-5.96-1.68-1.68-3.67-3.01-5.96-4-2.29-.99-4.72-1.48-7.28-1.48h-26.24v59.92h14.96v-22.48h11.28c1.01,0,1.88.36,2.6,1.08s1.08,1.61,1.08,2.68v18.72h15.04v-18.72c0-2.13-.35-4.15-1.04-6.04-.69-1.89-1.6-3.61-2.72-5.16,1.12-1.6,2.03-3.35,2.72-5.24.69-1.89,1.04-3.91,1.04-6.04ZM92.23,21.44c-.72.75-1.59,1.12-2.6,1.12h-11.28v-7.6h11.28c1.01,0,1.88.36,2.6,1.08.72.72,1.08,1.61,1.08,2.68s-.36,1.97-1.08,2.72Z"/>
  <path class="st0" d="M155.5,28.04c-1.68-1.68-3.65-3.01-5.92-4-2.27-.99-4.71-1.48-7.32-1.48-3.04,0-5.87.67-8.48,2-2.61,1.33-4.77,3.15-6.48,5.44V0h-14.96v59.92h14.96v-7.52c1.71,2.35,3.87,4.19,6.48,5.52,2.61,1.33,5.44,2,8.48,2,2.61,0,5.05-.49,7.32-1.48,2.27-.99,4.24-2.32,5.92-4,1.68-1.68,3.01-3.65,4-5.92.99-2.27,1.48-4.71,1.48-7.32s-.49-4.97-1.48-7.24c-.99-2.27-2.32-4.24-4-5.92ZM144.94,43.88c-.72.72-1.61,1.08-2.68,1.08s-1.88-.36-2.6-1.08-1.08-1.61-1.08-2.68.36-1.96,1.08-2.68c.72-.72,1.59-1.08,2.6-1.08,1.07,0,1.96.36,2.68,1.08.72.72,1.08,1.61,1.08,2.68s-.36,1.96-1.08,2.68Z"/>
  <path class="st0" d="M195.45,18.52c2-2.53,3.56-5.37,4.68-8.52,1.12-3.15,1.68-6.48,1.68-10h-14.96c0,2.08-.39,4.03-1.16,5.84-.77,1.81-1.84,3.4-3.2,4.76s-2.96,2.43-4.8,3.2c-1.84.77-3.8,1.16-5.88,1.16s-4.03-.39-5.84-1.16c-1.81-.77-3.4-1.84-4.76-3.2-1.36-1.36-2.43-2.95-3.2-4.76-.77-1.81-1.16-3.76-1.16-5.84h-14.96c0,3.52.56,6.85,1.68,10,1.12,3.15,2.68,5.99,4.68,8.52,2,2.53,4.37,4.71,7.12,6.52,2.75,1.81,5.75,3.15,9,4v30.88h14.88v-30.88c3.25-.85,6.27-2.19,9.04-4,2.77-1.81,5.16-3.99,7.16-6.52Z"/>
  <path class="st0" d="M194.4,44.83c-4.09,0-7.41,3.32-7.41,7.41s3.32,7.41,7.41,7.41,7.41-3.32,7.41-7.41-3.32-7.41-7.41-7.41ZM194.4,58.01c-3.18,0-5.77-2.59-5.77-5.77s2.59-5.77,5.77-5.77,5.77,2.59,5.77,5.77-2.59,5.77-5.77,5.77Z"/>
  <path class="st0" d="M194.4,54.76c-1.39,0-2.52-1.13-2.52-2.52h-1.64c0,2.29,1.87,4.16,4.16,4.16s4.16-1.87,4.16-4.16h-1.64c0,1.39-1.13,2.52-2.52,2.52Z"/>
  <path class="st0" d="M196.76,50.68c.45,0,.81-.36.81-.81s-.36-.81-.81-.81-.81.36-.81.81.36.81.81.81Z"/>
  <path class="st0" d="M192.05,50.68c.45,0,.81-.36.81-.81s-.36-.81-.81-.81-.81.36-.81.81.36.81.81.81Z"/>
</svg>