<?xml version="1.0" encoding="UTF-8"?>
<svg id="Lager_1" xmlns="http://www.w3.org/2000/svg" version="1.1" viewBox="0 0 981.54 295.89">
  <!-- Generator: Adobe Illustrator 29.8.3, SVG Export Plug-In . SVG Version: 2.1.1 Build 3)  -->
  <defs>
    <style>
      .st0 {
        fill: #c4ff00;
      }
    </style>
  </defs>
  <path class="st0" d="M252.44,43.45c-13.43-13.43-29.1-24.03-47.01-31.8C187.51,3.89,168.29,0,147.75,0s-39.37,3.89-57.28,11.66c-17.92,7.77-33.58,18.37-47.01,31.8-13.43,13.43-24.03,29.1-31.8,47.01C3.88,108.38,0,127.6,0,148.14s3.88,39.37,11.66,57.28c7.76,17.92,18.37,33.58,31.8,47.01,13.44,13.43,29.1,24.03,47.01,31.8,17.91,7.77,37,11.66,57.28,11.66s39.77-3.88,57.68-11.66c17.91-7.76,33.58-18.37,47.01-31.8,13.43-13.43,24.03-29.1,31.8-47.01,7.76-17.91,11.65-37,11.65-57.28s-3.89-39.77-11.65-57.68c-7.77-17.91-18.37-33.58-31.8-47.01ZM216.29,176.98c-3.82,8.96-9.09,16.79-15.8,23.5s-14.62,11.99-23.71,15.8c-9.09,3.82-18.76,5.73-29.04,5.73s-19.89-1.91-28.84-5.73c-8.96-3.81-16.79-9.09-23.5-15.8-6.72-6.71-11.99-14.55-15.8-23.5-3.82-8.95-5.73-18.57-5.73-28.84s1.91-19.95,5.73-29.04c3.81-9.09,9.09-16.99,15.8-23.7,6.71-6.72,14.55-11.98,23.5-15.8,8.95-3.81,18.57-5.73,28.84-5.73s19.95,1.91,29.04,5.73c9.09,3.82,16.99,9.09,23.71,15.8s11.98,14.62,15.8,23.7c3.81,9.09,5.73,18.76,5.73,29.04s-1.91,19.89-5.73,28.84Z"/>
  <path class="st0" d="M527.63,92.44c0-12.64-2.44-24.62-7.31-35.95-4.88-11.32-11.46-21.13-19.75-29.43-8.3-8.29-18.11-14.87-29.43-19.75-11.33-4.87-23.31-7.31-35.95-7.31h-129.58v295.89h73.87v-111.01h55.7c5,0,9.28,1.78,12.84,5.33s5.33,7.97,5.33,13.24v92.44h74.27v-92.44c0-10.53-1.72-20.48-5.14-29.83-3.42-9.35-7.9-17.84-13.43-25.48,5.53-7.9,10.01-16.53,13.43-25.88,3.42-9.35,5.14-19.29,5.14-29.83ZM448.03,105.87c-3.55,3.69-7.84,5.53-12.84,5.53h-55.7v-37.53h55.7c5,0,9.28,1.78,12.84,5.33,3.56,3.55,5.33,7.97,5.33,13.23s-1.77,9.75-5.33,13.43Z"/>
  <path class="st0" d="M753.5,138.47c-8.29-8.29-18.04-14.88-29.23-19.75-11.2-4.87-23.25-7.31-36.15-7.31-15.01,0-28.97,3.3-41.87,9.88-12.91,6.59-23.58,15.54-32,26.87V0h-73.87v295.89h73.87v-37.13c8.42,11.59,19.09,20.68,32,27.26,12.9,6.59,26.86,9.88,41.87,9.88,12.9,0,24.95-2.43,36.15-7.31,11.19-4.87,20.94-11.45,29.23-19.75,8.29-8.29,14.88-18.04,19.75-29.23,4.87-11.19,7.31-23.24,7.31-36.14s-2.44-24.56-7.31-35.75c-4.88-11.19-11.46-20.94-19.75-29.23ZM701.36,216.69c-3.56,3.55-7.97,5.33-13.24,5.33s-9.28-1.78-12.84-5.33-5.33-7.96-5.33-13.23,1.78-9.68,5.33-13.24c3.55-3.55,7.83-5.33,12.84-5.33,5.27,0,9.68,1.78,13.24,5.33,3.55,3.56,5.33,7.97,5.33,13.24s-1.77,9.68-5.33,13.23Z"/>
  <path class="st0" d="M950.13,91.45c9.88-12.5,17.58-26.53,23.11-42.07,5.53-15.54,8.29-32,8.29-49.38h-73.87c0,10.27-1.91,19.89-5.73,28.84-3.82,8.96-9.09,16.79-15.8,23.5-6.72,6.72-14.62,11.99-23.71,15.8-9.09,3.82-18.76,5.73-29.04,5.73s-19.89-1.91-28.84-5.73c-8.96-3.81-16.79-9.09-23.5-15.8-6.72-6.71-11.99-14.55-15.8-23.5-3.82-8.95-5.73-18.57-5.73-28.84h-73.87c0,17.38,2.77,33.84,8.29,49.38,5.53,15.54,13.24,29.57,23.11,42.07,9.88,12.51,21.59,23.25,35.16,32.2,13.56,8.96,28.38,15.54,44.44,19.75v152.49h73.48v-152.49c16.06-4.21,30.94-10.8,44.64-19.75,13.69-8.95,25.48-19.69,35.36-32.2Z"/>
  <path class="st0" d="M944.7,222.22c-20.31,0-36.84,16.53-36.84,36.84s16.53,36.84,36.84,36.84,36.84-16.53,36.84-36.84-16.53-36.84-36.84-36.84ZM944.7,287.75c-15.82,0-28.69-12.87-28.69-28.7s12.87-28.69,28.69-28.69,28.7,12.87,28.7,28.69-12.87,28.7-28.7,28.7Z"/>
  <path class="st0" d="M944.7,271.59c-6.91,0-12.53-5.62-12.53-12.54h-8.15c0,11.4,9.27,20.68,20.68,20.68s20.68-9.28,20.68-20.68h-8.15c0,6.91-5.62,12.54-12.54,12.54Z"/>
  <path class="st0" d="M956.39,251.3c2.23,0,4.03-1.81,4.03-4.04s-1.81-4.04-4.03-4.04-4.04,1.81-4.04,4.04,1.81,4.04,4.04,4.04Z"/>
  <path class="st0" d="M933.01,251.3c2.23,0,4.03-1.81,4.03-4.04s-1.81-4.04-4.03-4.04-4.04,1.81-4.04,4.04,1.81,4.04,4.04,4.04Z"/>
</svg>